<?xml version="1.0" encoding="utf-8"?>
<!-- Generator: Adobe Illustrator 23.0.1, SVG Export Plug-In . SVG Version: 6.00 Build 0)  -->
<svg version="1.1" id="Layer_1" xmlns="http://www.w3.org/2000/svg" xmlns:xlink="http://www.w3.org/1999/xlink" x="0px" y="0px"
	 viewBox="0 0 1000 1000" style="enable-background:new 0 0 1000 1000;" xml:space="preserve">
<style type="text/css">
	.st0{display:none;fill:#000002;}
	.st1{fill:#E2C05E;}
	.st2{fill:#FFFFFF;}
</style>
<rect x="-94" y="-682.18" class="st0" width="1189.28" height="2364.26"/>
<g>
	<g>
		<g>
			<path class="st1" d="M688.82,406.65h-66.52V533.3H563.3v-59.37c0,0-0.25-24.6,11.05-27.11c11.3-2.51,15.56,3.77,15.56,3.77h6.53
				v-21.59c-14.06-2.01-15.31,6.78-15.31,6.78c-53.66-23.71-70.22,12.37-70.41,12.8c4.65-3.39,20.08-8.16,32.13-3.14
				c12.05,5.02,9.04,25.73,9.04,25.73v62.13h-58.36V242.98L688.82,406.65z"/>
			<polygon class="st2" points="481.71,241.72 268.58,367.49 268.58,377.03 482.22,251.64 			"/>
			<polygon class="st2" points="481.71,281.89 268.58,407.66 268.58,417.2 482.22,291.8 			"/>
			<polygon class="st2" points="317.03,301.97 308.5,307.99 308.5,565.56 317.53,565.56 			"/>
			<polygon class="st1" points="480.33,315.27 339.29,400.71 339.29,565.81 469.91,565.81 469.91,557.02 347.66,557.02 
				347.66,404.9 472.68,329.46 472.68,533.93 480.71,533.93 			"/>
			<polygon class="st1" points="465.65,554.18 515.35,554.18 515.35,552.05 522,552.05 530.54,560.08 530.54,562.59 521.5,570.87 
				515.98,570.87 515.98,567.99 465.52,567.99 			"/>
			<rect x="525.9" y="558.07" class="st1" width="68.03" height="6.78"/>
			<polygon class="st1" points="620.09,560.98 620.08,560.98 605.64,565.07 605.64,562.73 593.01,562.73 586.44,560.98 
				586.41,560.97 586.42,560.97 592.98,559.22 605.62,559.22 605.62,556.88 620.05,560.97 			"/>
			<polygon class="st1" points="586.41,560.97 586.44,560.98 586.37,560.98 			"/>
			<polygon class="st1" points="620.1,560.98 620.08,560.98 620.09,560.98 			"/>
			<polygon class="st1" points="586.4,560.97 586.42,560.97 586.41,560.97 			"/>
			<polygon class="st1" points="620.12,560.97 620.09,560.98 620.05,560.97 			"/>
			<rect x="398.12" y="422.34" class="st2" width="13.68" height="13.68"/>
			<rect x="416.44" y="422.34" class="st2" width="13.68" height="13.68"/>
			<rect x="398.12" y="440.17" class="st2" width="13.68" height="13.68"/>
			<rect x="416.44" y="440.17" class="st2" width="13.68" height="13.68"/>
		</g>
		<g>
			<path class="st1" d="M143.07,606.95l19.43,63.08l19.43-63.08h9.93l-20.49,66.28c-2.03,6.4-4.38,9.61-8.86,9.61
				c-4.59,0-6.83-3.2-8.86-9.61l-20.49-66.28H143.07z"/>
			<rect x="196.98" y="606.95" class="st1" width="9.93" height="74.61"/>
			<path class="st1" d="M217.8,671.63h25.51c8.22,0,12.38-3.31,12.38-9.39c0-5.44-3.74-8.43-11.53-12.38l-12.49-6.41
				c-9.07-4.59-13.56-10.57-13.56-18.46c0-10.78,8.22-18.04,22.84-18.04h21.56v9.82h-24.87c-5.76,0-9.29,3.2-9.29,7.9
				c0,5.55,4.48,8.01,12.81,12.27l10.89,5.55c9.5,4.8,13.98,10.89,13.98,19.21c0,12.28-8.54,19.85-24.66,19.85H217.8V671.63z"/>
			<polygon class="st1" points="276.94,606.95 286.76,606.95 286.76,637.9 318.88,637.9 318.88,606.95 328.81,606.95 328.81,681.56 
				318.88,681.56 318.88,647.3 286.76,647.3 286.76,681.56 276.94,681.56 			"/>
			<path class="st1" d="M351.66,606.95v49.84c0,10.99,5.01,16.76,13.45,16.76c8.43,0,13.34-5.76,13.34-16.76v-49.84h9.82v49.84
				c0,10.99,4.91,16.76,13.34,16.76c8.43,0,13.34-5.76,13.34-16.76v-49.84h9.93v49.84c0,16.22-9.61,26.04-23.27,26.04
				c-7.37,0-13.55-3.1-18.25-9.07c-4.48,5.87-10.99,9.07-18.25,9.07c-13.66,0-23.27-9.71-23.27-26.04v-49.84H351.66z"/>
			<path class="st1" d="M477.2,647.3h-29.03v-9.39h29.03v-2.99c0-13.24-5.87-20.07-16.01-20.07c-10.14,0-16.01,6.83-16.01,20.07
				v46.64h-9.93V634.7c0-18.25,10.67-29.03,25.94-29.03c15.26,0,25.93,10.78,25.93,29.03v46.86h-9.93V647.3z"/>
			<path class="st1" d="M500.05,606.95h9.82v30.95h8.75c8.54,0,11.53-3.84,15.69-13.23l7.79-17.72h10.67l-9.5,21.67
				c-2.46,5.66-4.8,9.6-9.82,11.63c10.35,1.71,15.8,8.54,15.8,20.07v21.24h-9.92v-17.4c0-11.53-3.74-16.86-14.52-16.86h-14.94v34.26
				h-9.82V606.95z"/>
			<path class="st1" d="M601.99,647.3h-29.03v-9.39h29.03v-2.99c0-13.24-5.87-20.07-16.01-20.07c-10.14,0-16.01,6.83-16.01,20.07
				v46.64h-9.93V634.7c0-18.25,10.67-29.03,25.94-29.03c15.26,0,25.93,10.78,25.93,29.03v46.86h-9.93V647.3z"/>
			<path class="st1" d="M624.1,633.74c0-17.93,9.61-28.07,24.33-28.07c13.77,0,23.59,9.5,23.59,21.03c0,7.04-3.41,12.7-10.03,16.33
				c7.89,2.13,11.1,7.9,11.1,18.25v20.28h-9.82v-16.54c0-11.53-2.67-16.12-14.09-16.12h-11.31v-9.07h8.75
				c9.92,0,15.26-4.8,15.26-12.49c0-7.15-5.34-12.49-13.55-12.49c-8.54,0-14.41,6.08-14.41,16.65v50.06h-9.82V633.74z"/>
			<path class="st1" d="M689.44,615.06c0.85-5.98,3.52-9.07,7.9-9.07c3.74,0,6.51,2.56,8.01,7.47l16.65,53.15l16.54-53.15
				c1.49-4.91,4.27-7.47,8.01-7.47c4.38,0,7.04,3.1,7.9,9.07l9.5,66.5h-9.5l-8.54-61.48l-17.08,54.75c-1.6,5.12-3.63,7.58-6.83,7.58
				c-3.52,0-5.34-2.56-6.94-7.58l-17.08-54.75l-8.43,61.48h-9.61L689.44,615.06z"/>
			<path class="st1" d="M814.33,647.3H785.3v-9.39h29.03v-2.99c0-13.24-5.87-20.07-16.01-20.07c-10.14,0-16.01,6.83-16.01,20.07
				v46.64h-9.93V634.7c0-18.25,10.67-29.03,25.94-29.03c15.26,0,25.94,10.78,25.94,29.03v46.86h-9.93V647.3z"/>
			<path class="st2" d="M335.03,754.02c-1.7-1.7-2.55-3.92-2.55-6.66v-21.53c0-2.74,0.85-4.96,2.55-6.66
				c1.7-1.7,3.92-2.55,6.66-2.55c2.74,0,4.96,0.85,6.66,2.55c1.7,1.7,2.55,3.92,2.55,6.66v4.55h-5.77v-4.55c0-1.11-0.32-2-0.94-2.66
				c-0.63-0.66-1.44-1-2.44-1c-1,0-1.81,0.34-2.44,1c-0.63,0.66-0.94,1.55-0.94,2.66v21.53c0,1.11,0.31,2,0.94,2.66
				c0.63,0.67,1.44,1,2.44,1c1,0,1.81-0.33,2.44-1c0.63-0.66,0.94-1.55,0.94-2.66v-5.55h5.77v5.55c0,2.74-0.85,4.96-2.55,6.66
				c-1.7,1.7-3.92,2.55-6.66,2.55C338.95,756.57,336.73,755.72,335.03,754.02"/>
			<path class="st2" d="M360.83,753.99c-1.74-1.72-2.61-3.99-2.61-6.8V726c0-2.81,0.87-5.08,2.61-6.8c1.74-1.72,4.01-2.58,6.82-2.58
				c2.81,0,5.08,0.86,6.82,2.58c1.74,1.72,2.61,3.99,2.61,6.8v21.19c0,2.81-0.87,5.08-2.61,6.8c-1.74,1.72-4.01,2.58-6.82,2.58
				C364.84,756.57,362.57,755.71,360.83,753.99 M370.26,750.03c0.63-0.66,0.94-1.61,0.94-2.83V726c0-1.22-0.32-2.16-0.94-2.83
				c-0.63-0.66-1.5-1-2.61-1c-1.11,0-1.98,0.33-2.61,1c-0.63,0.67-0.94,1.61-0.94,2.83v21.19c0,1.22,0.31,2.16,0.94,2.83
				c0.63,0.67,1.5,1,2.61,1C368.77,751.03,369.64,750.69,370.26,750.03"/>
			<polygon class="st2" points="385.24,717.18 391.73,717.18 399.22,743.26 399.22,717.18 404.99,717.18 404.99,756.02 
				398.78,756.02 391.01,731.16 391.01,756.02 385.24,756.02 			"/>
			<path class="st2" d="M416.87,755.35c-1.44-0.81-2.56-1.94-3.36-3.39c-0.8-1.44-1.19-3.09-1.19-4.94v-1.39l5.66-0.61v1.44
				c0,1.41,0.33,2.52,1,3.33c0.67,0.81,1.59,1.22,2.77,1.22c1.15,0,2.06-0.33,2.75-1c0.68-0.66,1.03-1.57,1.03-2.72
				c0-1.26-0.36-2.46-1.08-3.6c-0.72-1.15-2.15-2.74-4.3-4.77c-2.89-2.74-4.86-5.01-5.91-6.82c-1.06-1.81-1.58-3.79-1.58-5.94
				c0-2.92,0.79-5.24,2.39-6.96c1.59-1.72,3.77-2.58,6.55-2.58c2.77,0,4.96,0.87,6.55,2.61c1.59,1.74,2.39,4.07,2.39,6.99v1
				l-5.66,0.61v-1.11c0-1.48-0.28-2.61-0.83-3.38c-0.55-0.78-1.35-1.17-2.39-1.17c-1.04,0-1.83,0.32-2.39,0.95
				c-0.55,0.63-0.83,1.55-0.83,2.77s0.37,2.39,1.11,3.52c0.74,1.13,2.16,2.75,4.27,4.86c2.89,2.89,4.86,5.21,5.91,6.96
				c1.05,1.76,1.58,3.69,1.58,5.8c0,1.85-0.4,3.5-1.19,4.94c-0.8,1.45-1.91,2.57-3.36,3.39c-1.44,0.81-3.09,1.22-4.94,1.22
				C419.95,756.57,418.31,756.17,416.87,755.35"/>
			<polygon class="st2" points="436.45,717.18 455.2,717.18 455.2,722.73 448.77,722.73 448.77,756.02 442.89,756.02 442.89,722.73 
				436.45,722.73 			"/>
			<path class="st2" d="M475.18,756.02l-4.27-16.04h-3.05v16.04h-5.88v-38.84h9.21c2.81,0,5.05,0.84,6.71,2.53
				c1.66,1.68,2.5,3.93,2.5,6.74v4.27c0,1.78-0.35,3.35-1.05,4.72c-0.7,1.37-1.7,2.44-3,3.22l4.94,17.37H475.18z M467.85,734.44
				h3.05c1.15,0,2.03-0.31,2.66-0.94c0.63-0.63,0.94-1.52,0.94-2.66v-4.5c0-1.15-0.31-2.03-0.94-2.66
				c-0.63-0.63-1.52-0.94-2.66-0.94h-3.05V734.44z"/>
			<path class="st2" d="M490.66,754.05c-1.7-1.68-2.55-3.87-2.55-6.58v-30.29h5.88v30.29c0,1.11,0.31,1.98,0.92,2.61
				c0.61,0.63,1.4,0.94,2.36,0.94c0.96,0,1.75-0.31,2.36-0.94c0.61-0.63,0.92-1.5,0.92-2.61v-30.29h5.77v30.29
				c0,2.7-0.83,4.89-2.5,6.58c-1.66,1.68-3.85,2.52-6.55,2.52C494.56,756.57,492.36,755.73,490.66,754.05"/>
			<path class="st2" d="M516.79,754.02c-1.7-1.7-2.55-3.92-2.55-6.66v-21.53c0-2.74,0.85-4.96,2.55-6.66
				c1.7-1.7,3.92-2.55,6.66-2.55c2.74,0,4.96,0.85,6.66,2.55c1.7,1.7,2.55,3.92,2.55,6.66v4.55h-5.77v-4.55c0-1.11-0.32-2-0.94-2.66
				c-0.63-0.66-1.44-1-2.44-1c-1,0-1.81,0.34-2.44,1c-0.63,0.66-0.94,1.55-0.94,2.66v21.53c0,1.11,0.31,2,0.94,2.66
				c0.63,0.67,1.44,1,2.44,1c1,0,1.81-0.33,2.44-1c0.63-0.66,0.94-1.55,0.94-2.66v-5.55h5.77v5.55c0,2.74-0.85,4.96-2.55,6.66
				c-1.7,1.7-3.92,2.55-6.66,2.55C520.71,756.57,518.49,755.72,516.79,754.02"/>
			<polygon class="st2" points="538.59,717.18 557.35,717.18 557.35,722.73 550.91,722.73 550.91,756.02 545.03,756.02 
				545.03,722.73 538.59,722.73 			"/>
			<rect x="564.11" y="717.18" class="st2" width="5.88" height="38.84"/>
			<path class="st2" d="M580.76,753.99c-1.74-1.72-2.61-3.99-2.61-6.8V726c0-2.81,0.87-5.08,2.61-6.8c1.74-1.72,4.01-2.58,6.82-2.58
				c2.81,0,5.08,0.86,6.82,2.58c1.74,1.72,2.61,3.99,2.61,6.8v21.19c0,2.81-0.87,5.08-2.61,6.8c-1.74,1.72-4.01,2.58-6.82,2.58
				C584.77,756.57,582.49,755.71,580.76,753.99 M590.19,750.03c0.63-0.66,0.94-1.61,0.94-2.83V726c0-1.22-0.32-2.16-0.94-2.83
				c-0.63-0.66-1.5-1-2.61-1c-1.11,0-1.98,0.33-2.61,1c-0.63,0.67-0.94,1.61-0.94,2.83v21.19c0,1.22,0.31,2.16,0.94,2.83
				c0.63,0.67,1.5,1,2.61,1C588.69,751.03,589.56,750.69,590.19,750.03"/>
			<polygon class="st2" points="605.17,717.18 611.66,717.18 619.15,743.26 619.15,717.18 624.92,717.18 624.92,756.02 
				618.71,756.02 610.94,731.16 610.94,756.02 605.17,756.02 			"/>
			<polygon class="st2" points="824.26,720.87 634.74,721.68 634.74,716.53 			"/>
			<polygon class="st2" points="824.26,733.21 634.74,734.01 634.74,728.87 			"/>
			<polygon class="st2" points="824.26,745.48 634.74,746.29 634.74,741.15 			"/>
			<polygon class="st2" points="824.26,757.47 634.74,758.28 634.74,753.14 			"/>
			<polygon class="st2" points="133.14,720.87 322.66,721.68 322.66,716.53 			"/>
			<polygon class="st2" points="133.14,733.21 322.66,734.01 322.66,728.87 			"/>
			<polygon class="st2" points="133.14,745.48 322.66,746.29 322.66,741.15 			"/>
			<polygon class="st2" points="133.14,757.47 322.66,758.28 322.66,753.14 			"/>
		</g>
	</g>
	<g>
		<path class="st1" d="M848.76,596.38c10.02,0.01,18.11,8.11,18.1,18.13c-0.01,10.02-8.13,18.09-18.16,18.07
			c-9.97-0.02-18.08-8.13-18.06-18.08C830.66,604.46,838.74,596.37,848.76,596.38z M864.58,614.51
			c-0.04-8.84-7.12-15.88-15.95-15.85c-8.68,0.03-15.71,7.17-15.69,15.91c0.02,8.73,7.18,15.78,15.96,15.73
			C857.5,630.27,864.61,623.1,864.58,614.51z"/>
		<path class="st1" d="M861.4,621.18c-0.79,0-1.53,0-2.33,0c-0.19-2.65-0.38-5.29-0.57-7.94c-0.03-0.01-0.06-0.02-0.09-0.03
			c-0.06,0.15-0.13,0.29-0.19,0.44c-0.98,2.39-1.97,4.77-2.94,7.16c-0.12,0.29-0.25,0.4-0.58,0.4c-1.18-0.01-1.18,0-1.64-1.11
			c-0.88-2.15-1.77-4.31-2.66-6.46c-0.06-0.14-0.12-0.27-0.27-0.4c-0.19,2.64-0.38,5.28-0.57,7.94c-0.78,0-1.53,0-2.33,0
			c0.31-4.3,0.62-8.59,0.93-12.91c0.74,0,1.44-0.02,2.14,0.02c0.12,0.01,0.26,0.22,0.32,0.37c1.16,2.85,2.31,5.71,3.47,8.56
			c0.06,0.14,0.12,0.28,0.23,0.53c1.3-3.22,2.56-6.35,3.82-9.46c0.78,0,1.53,0,2.32,0C860.78,612.59,861.09,616.87,861.4,621.18z"/>
		<path class="st1" d="M835.74,610.41c0-0.74,0-1.41,0-2.12c3.79,0,7.57,0,11.39,0c0,0.68,0,1.36,0,2.09c-1.47,0-2.94,0-4.46,0
			c0,3.61,0,7.19,0,10.79c-0.81,0-1.57,0-2.38,0c0-3.58,0-7.15,0-10.76C838.75,610.41,837.27,610.41,835.74,610.41z"/>
	</g>
</g>
</svg>
